#N canvas -5 146 688 406 12;
#X floatatom 69 36 5 0 0 0 - - - 0;
#X floatatom 260 17 5 0 0 0 - - - 0;
#X text 318 15 set bpm;
#X obj 260 40 v bpm;
#X obj 328 45 loadbang;
#X obj 328 69 i 90;
#X obj 108 93 v bpm;
#X obj 69 59 t a b;
#X obj 76 163 *;
#X floatatom 76 187 5 0 0 0 - - - 0;
#X text 120 188 output beats;
#X obj 108 117 / 60;
#X text 113 35 input in seconds;
#X connect 0 0 7 0;
#X connect 1 0 3 0;
#X connect 4 0 5 0;
#X connect 5 0 1 0;
#X connect 6 0 11 0;
#X connect 7 0 8 0;
#X connect 7 1 6 0;
#X connect 8 0 9 0;
#X connect 11 0 8 1;
