#N canvas 559 362 688 406 12;
#X floatatom 69 36 5 0 0 0 - - - 0;
#X floatatom 260 17 5 0 0 0 - - - 0;
#X text 318 15 set bpm;
#X obj 260 40 v bpm;
#X obj 328 45 loadbang;
#X obj 328 69 i 90;
#X obj 108 93 v bpm;
#X obj 69 59 t a b;
#X obj 76 163 *;
#X floatatom 76 187 5 0 0 0 - - - 0;
#X text 120 188 output beats;
#X obj 108 117 / 60;
#X text 113 35 input in seconds;
#X obj 76 210 * 50;
#X floatatom 76 234 5 0 0 0 - - - 0;
#X floatatom 376 134 5 0 0 0 - - - 0;
#X text 416 134 beats;
#X obj 375 164 * 60;
#X obj 375 188 * 50;
#X obj 375 212 / 90;
#X text 422 210 bpm;
#X floatatom 375 236 5 0 0 0 - - - 0;
#X obj 375 259 i;
#X floatatom 375 283 5 0 0 0 - - - 0;
#X obj 502 113 hsl 162 19 0 127 0 0 empty empty empty -2 -10 0 12 #fcfcfc #000000 #000000 0 1;
#X obj 496 139 / 127;
#X obj 495 207 * 6.28319;
#X obj 495 238 sin;
#X floatatom 495 318 5 0 0 0 - - - 0;
#X obj 495 341 * 127;
#X obj 495 365 hsl 162 19 0 127 0 0 empty empty empty -2 -10 0 12 #fcfcfc #000000 #000000 0 1;
#X obj 496 179 * 0.5;
#X obj 495 262 pow 12;
#X obj 186 95 / 60;
#X floatatom 186 119 5 0 0 0 - - - 0;
#X obj 98 1 bng 19 250 50 0 empty empty empty 0 -10 0 12 #fcfcfc #000000 #000000;
#X floatatom 253 119 5 0 0 0 - - - 0;
#X obj 253 142 / 50;
#X floatatom 253 166 5 0 0 0 - - - 0;
#X obj 253 189 / 60;
#X floatatom 253 213 5 0 0 0 - - - 0;
#X obj 252 66 bng 19 250 50 0 empty empty empty 0 -10 0 12 #fcfcfc #000000 #000000;
#X floatatom 176 292 5 0 0 0 - - - 0;
#X floatatom 249 288 5 0 0 0 - - - 0;
#X obj 249 311 * 20;
#X floatatom 249 335 5 0 0 0 - - - 0;
#X obj 249 358 / 1000;
#X floatatom 249 382 5 0 0 0 - - - 0;
#X obj 258 261 bng 19 250 50 0 empty empty empty 0 -10 0 12 #fcfcfc #000000 #000000;
#X msg 131 268 1170;
#X obj 131 292 / 21;
#X floatatom 131 316 5 0 0 0 - - - 0;
#X connect 0 0 7 0;
#X connect 0 0 33 0;
#X connect 1 0 3 0;
#X connect 4 0 5 0;
#X connect 5 0 1 0;
#X connect 6 0 11 0;
#X connect 7 0 8 0;
#X connect 7 1 6 0;
#X connect 8 0 9 0;
#X connect 9 0 13 0;
#X connect 11 0 8 1;
#X connect 13 0 14 0;
#X connect 15 0 17 0;
#X connect 17 0 18 0;
#X connect 18 0 19 0;
#X connect 19 0 21 0;
#X connect 21 0 22 0;
#X connect 22 0 23 0;
#X connect 24 0 25 0;
#X connect 25 0 31 0;
#X connect 26 0 27 0;
#X connect 27 0 32 0;
#X connect 28 0 29 0;
#X connect 29 0 30 0;
#X connect 31 0 26 0;
#X connect 32 0 28 0;
#X connect 33 0 34 0;
#X connect 35 0 0 0;
#X connect 36 0 37 0;
#X connect 37 0 38 0;
#X connect 38 0 39 0;
#X connect 39 0 40 0;
#X connect 41 0 36 0;
#X connect 43 0 44 0;
#X connect 44 0 45 0;
#X connect 45 0 46 0;
#X connect 46 0 47 0;
#X connect 48 0 43 0;
#X connect 49 0 50 0;
#X connect 50 0 51 0;
