#N canvas 425 351 688 406 12;
#X floatatom 69 36 5 0 0 0 - - - 0;
#X floatatom 260 17 5 0 0 0 - - - 0;
#X text 318 15 set bpm;
#X obj 260 40 v bpm;
#X obj 328 45 loadbang;
#X obj 328 69 i 90;
#X obj 108 93 v bpm;
#X obj 69 59 t a b;
#X obj 76 163 *;
#X floatatom 76 187 5 0 0 0 - - - 0;
#X text 120 188 output beats;
#X obj 108 117 / 60;
#X text 113 35 input in seconds;
#X obj 76 210 * 50;
#X floatatom 76 234 5 0 0 0 - - - 0;
#X floatatom 325 189 5 0 0 0 - - - 0;
#X text 365 189 beats;
#X obj 324 219 * 60;
#X obj 324 243 * 50;
#X obj 324 267 / 90;
#X text 371 265 bpm;
#X floatatom 324 291 5 0 0 0 - - - 0;
#X obj 324 314 i;
#X floatatom 324 338 5 0 0 0 - - - 0;
#X obj 502 113 hsl 162 19 0 127 0 0 empty empty empty -2 -10 0 12 #fcfcfc #000000 #000000 0 1;
#X obj 496 139 / 127;
#X obj 495 207 * 6.28319;
#X obj 495 238 sin;
#X floatatom 495 318 5 0 0 0 - - - 0;
#X obj 495 341 * 127;
#X obj 495 365 hsl 162 19 0 127 0 0 empty empty empty -2 -10 0 12 #fcfcfc #000000 #000000 0 1;
#X obj 496 179 * 0.5;
#X obj 495 262 pow 12;
#X connect 0 0 7 0;
#X connect 1 0 3 0;
#X connect 4 0 5 0;
#X connect 5 0 1 0;
#X connect 6 0 11 0;
#X connect 7 0 8 0;
#X connect 7 1 6 0;
#X connect 8 0 9 0;
#X connect 9 0 13 0;
#X connect 11 0 8 1;
#X connect 13 0 14 0;
#X connect 15 0 17 0;
#X connect 17 0 18 0;
#X connect 18 0 19 0;
#X connect 19 0 21 0;
#X connect 21 0 22 0;
#X connect 22 0 23 0;
#X connect 24 0 25 0;
#X connect 25 0 31 0;
#X connect 26 0 27 0;
#X connect 27 0 32 0;
#X connect 28 0 29 0;
#X connect 29 0 30 0;
#X connect 31 0 26 0;
#X connect 32 0 28 0;
